<mxfile host="Electron" agent="Mozilla/5.0 (Windows NT 10.0; Win64; x64) AppleWebKit/537.36 (KHTML, like Gecko) draw.io/24.7.5 Chrome/126.0.6478.183 Electron/31.3.0 Safari/537.36" version="24.7.5">
  <diagram name="Page-1" id="R-j081ZuEP9yXRBQE0EB">
    <mxGraphModel dx="377" dy="565" grid="1" gridSize="10" guides="1" tooltips="1" connect="1" arrows="1" fold="1" page="1" pageScale="1" pageWidth="827" pageHeight="1169" math="0" shadow="0">
      <root>
        <mxCell id="0" />
        <mxCell id="1" parent="0" />
        <mxCell id="9hrH6tB9lyH-73kWBs_H-1" value="Developer" style="shape=umlActor;verticalLabelPosition=bottom;verticalAlign=top;html=1;outlineConnect=0;" vertex="1" parent="1">
          <mxGeometry x="70" y="120" width="30" height="60" as="geometry" />
        </mxCell>
        <mxCell id="9hrH6tB9lyH-73kWBs_H-3" value="" style="rounded=0;whiteSpace=wrap;html=1;" vertex="1" parent="1">
          <mxGeometry x="140" y="30" width="190" height="310" as="geometry" />
        </mxCell>
        <mxCell id="9hrH6tB9lyH-73kWBs_H-4" value="Develop a new Link Library" style="text;html=1;align=center;verticalAlign=middle;whiteSpace=wrap;rounded=0;" vertex="1" parent="1">
          <mxGeometry x="140" y="30" width="190" height="30" as="geometry" />
        </mxCell>
        <mxCell id="9hrH6tB9lyH-73kWBs_H-5" value="Choose communications protocol" style="ellipse;whiteSpace=wrap;html=1;" vertex="1" parent="1">
          <mxGeometry x="220" y="125" width="100" height="50" as="geometry" />
        </mxCell>
        <mxCell id="9hrH6tB9lyH-73kWBs_H-7" value="Develop Link Library" style="ellipse;whiteSpace=wrap;html=1;" vertex="1" parent="1">
          <mxGeometry x="170" y="60" width="100" height="50" as="geometry" />
        </mxCell>
        <mxCell id="9hrH6tB9lyH-73kWBs_H-8" value="" style="endArrow=none;html=1;rounded=0;dashed=1;endFill=0;entryX=0.5;entryY=0;entryDx=0;entryDy=0;exitX=1;exitY=1;exitDx=0;exitDy=0;startArrow=open;startFill=0;" edge="1" parent="1" source="9hrH6tB9lyH-73kWBs_H-7" target="9hrH6tB9lyH-73kWBs_H-5">
          <mxGeometry width="50" height="50" relative="1" as="geometry">
            <mxPoint x="50" y="340" as="sourcePoint" />
            <mxPoint x="100" y="290" as="targetPoint" />
          </mxGeometry>
        </mxCell>
        <mxCell id="9hrH6tB9lyH-73kWBs_H-9" value="&amp;lt;&amp;lt;include&amp;gt;&amp;gt;" style="edgeLabel;html=1;align=center;verticalAlign=middle;resizable=0;points=[];" vertex="1" connectable="0" parent="9hrH6tB9lyH-73kWBs_H-8">
          <mxGeometry x="-0.1293" relative="1" as="geometry">
            <mxPoint x="33" y="-2" as="offset" />
          </mxGeometry>
        </mxCell>
        <mxCell id="9hrH6tB9lyH-73kWBs_H-10" value="Testing" style="ellipse;whiteSpace=wrap;html=1;" vertex="1" parent="1">
          <mxGeometry x="210" y="200" width="100" height="50" as="geometry" />
        </mxCell>
        <mxCell id="9hrH6tB9lyH-73kWBs_H-12" value="" style="endArrow=none;html=1;rounded=0;entryX=0;entryY=0.5;entryDx=0;entryDy=0;" edge="1" parent="1" target="9hrH6tB9lyH-73kWBs_H-10">
          <mxGeometry width="50" height="50" relative="1" as="geometry">
            <mxPoint x="110" y="150" as="sourcePoint" />
            <mxPoint x="170" y="130" as="targetPoint" />
          </mxGeometry>
        </mxCell>
        <mxCell id="9hrH6tB9lyH-73kWBs_H-13" value="Publish" style="ellipse;whiteSpace=wrap;html=1;" vertex="1" parent="1">
          <mxGeometry x="150" y="260" width="100" height="50" as="geometry" />
        </mxCell>
        <mxCell id="9hrH6tB9lyH-73kWBs_H-14" value="" style="endArrow=none;html=1;rounded=0;exitX=0;exitY=0;exitDx=0;exitDy=0;" edge="1" parent="1" source="9hrH6tB9lyH-73kWBs_H-13">
          <mxGeometry width="50" height="50" relative="1" as="geometry">
            <mxPoint x="184" y="260" as="sourcePoint" />
            <mxPoint x="110" y="150" as="targetPoint" />
          </mxGeometry>
        </mxCell>
        <mxCell id="9hrH6tB9lyH-73kWBs_H-18" value="" style="endArrow=none;html=1;rounded=0;entryX=0;entryY=0.5;entryDx=0;entryDy=0;" edge="1" parent="1" target="9hrH6tB9lyH-73kWBs_H-7">
          <mxGeometry width="50" height="50" relative="1" as="geometry">
            <mxPoint x="110" y="150" as="sourcePoint" />
            <mxPoint x="150" y="70" as="targetPoint" />
          </mxGeometry>
        </mxCell>
      </root>
    </mxGraphModel>
  </diagram>
</mxfile>
